<?xml version="1.0" encoding="UTF-8"?>
<!DOCTYPE svg PUBLIC "-//W3C//DTD SVG 1.1//EN" "http://www.w3.org/Graphics/SVG/1.1/DTD/svg11.dtd">
<!-- Creator: CorelDRAW -->
<svg xmlns="http://www.w3.org/2000/svg" xml:space="preserve" width="3.3002in" height="2.3689in" version="1.1" style="shape-rendering:geometricPrecision; text-rendering:geometricPrecision; image-rendering:optimizeQuality; fill-rule:evenodd; clip-rule:evenodd"
viewBox="0 0 537.1 385.53"
 xmlns:xlink="http://www.w3.org/1999/xlink"
 xmlns:xodm="http://www.corel.com/coreldraw/odm/2003">
 <defs>
  <style type="text/css">
   <![CDATA[
    .fil0 {fill:#373435;fill-rule:nonzero}
   ]]>
  </style>
 </defs>
 <g id="Layer_x0020_1">
  <metadata id="CorelCorpID_0Corel-Layer"/>
  <path class="fil0" d="M121.83 124.54c-0.09,-0.04 -30.57,-13.71 -79.68,26.05 -30.88,25 -40.77,54.43 -36.81,77.61 2.12,12.45 8.24,23.08 17.22,30.19 8.97,7.1 20.84,10.71 34.48,9.14 28.22,-3.24 63.9,-28.45 97.56,-90.17l0.39 -0.71c-2.37,-6.18 -4.76,-12.65 -7.11,-19.31 -9.01,-25.54 -17.66,-53.92 -22.55,-79.05 -5.17,-26.56 -2.19,-46.62 4.5,-59.71 3.38,-6.61 7.72,-11.49 12.47,-14.58 4.89,-3.18 10.21,-4.48 15.39,-3.86 5.64,0.68 11.07,3.63 15.53,8.92 11.05,13.09 18.51,40.65 15.36,76.05 -2.4,26.98 -10.93,58.61 -28.71,91.96 10.99,29.22 20.58,50.93 22.35,52.72 0.96,-0.93 5.23,-8.98 9.69,-17.86 3.15,-6.27 6.23,-12.92 8.27,-17.96 0.08,-2.66 0.36,-4.76 0.7,-6.3 0.32,-1.44 0.73,-2.51 1.12,-3.16 1.44,-2.4 3.09,-2.5 4.5,-0.48 0.4,0.58 0.64,1.52 0.6,2.76l0 0.01c-0.01,0.38 -0.06,0.79 -0.15,1.22l0 0.01c-0.3,1.5 -1.13,3.91 -2.3,6.86 -0.08,5.52 0.76,13.6 3.79,24.25 2.61,9.15 5.32,14.98 7.95,17.82l0 0.01c1.03,1.11 1.96,1.67 2.77,1.7 0.75,0.03 1.57,-0.42 2.45,-1.32 2.11,-2.18 4.11,-6.51 5.86,-12.74 2.22,-7.91 3.1,-14.6 3.26,-19.92 0.07,-2.25 0.03,-4.23 -0.08,-5.92 -0.69,-0.78 -1.24,-1.68 -1.67,-2.6 -0.72,-1.57 -1.06,-3.23 -1.14,-4.53 -0.12,-2.09 0.67,-3.77 1.87,-4.19 0.94,-0.33 1.83,-0.15 2.6,0.63 0.72,0.72 1.9,3.62 2.53,8.32 0.81,0.51 1.85,0.76 3.19,0.55 6.05,-0.94 9.48,-4.84 11.62,-7.27 0.72,-0.82 1.33,-1.51 1.95,-2.01 0.85,-2.17 2.02,-2.66 2.96,-2.28 0.66,-0.45 1.17,-0.71 1.52,-0.69 0.79,-0.58 1.69,-1.03 2.61,-1.33 2.88,-0.94 6.23,-0.5 8.11,1.83 0.85,1.05 1.56,3.43 2.08,6.58 2.17,-2.32 4.47,-5.75 6.9,-10.23 2.55,-4.69 4.09,-14.05 4.91,-24.89 -2.32,-20.03 -3.15,-36.76 -3.14,-47.03 0,-4.01 0.13,-7.06 0.35,-8.96 0.67,-5.94 2.39,-7.1 4.99,-3.02 0.36,0.57 0.7,1.64 0.98,3.24 1.62,9 2.65,30.27 1.74,49.34 -0.1,2.15 -0.23,4.27 -0.39,6.34 1.67,14.32 4.12,30.32 7.59,46.86 4.95,23.63 11.24,41.98 17.42,55.81 1.96,4.38 3.89,8.3 5.76,11.78 10.62,-4.16 21.26,-8.3 31.89,-12.44 199.47,-77.69 212.79,-81.76 168.14,-63.19 37.32,-13.36 16.9,-4.19 -173.77,70.22 -1.85,0.73 -3.7,1.47 -5.56,2.19 -5.82,2.25 -13.57,5.71 -17.63,7.55 3.36,3.89 10.14,11.92 13.88,17.59 -1.33,-1.41 -4.25,-4.03 -7.42,-6.8 3.27,4.29 5.81,6.68 7.14,7.44 0.52,0.3 0.83,0.43 0.96,0.42 2.86,4.59 3.16,7.13 -3.21,3.5 -2.58,-1.47 -9,-7.99 -16.42,-20.84 -5.08,2 -10.75,4.23 -16.77,6.62 -61.92,24.58 -179.84,72.65 -232.27,102.28l-2.21 -3.92c52.68,-29.77 170.8,-77.92 232.82,-102.55 6.1,-2.42 11.51,-4.56 16.22,-6.41 -1.86,-3.47 -3.77,-7.32 -5.68,-11.59 -6.29,-14.09 -12.69,-32.75 -17.72,-56.73 -2.19,-10.46 -3.98,-20.71 -5.42,-30.47 -0.85,4.05 -1.92,7.44 -3.22,9.84 -3.51,6.47 -6.91,11.04 -10.22,13.58 0.28,3.69 0.33,7.82 0.09,11.86 -0.48,8.01 -2.08,15.88 -5.29,19.69 -1.2,1.41 -2.47,2.27 -3.79,2.67 -2.09,0.62 -4.09,0.09 -5.92,-1.31 -1.52,-1.16 -2.91,-2.95 -4.09,-5.15 -2.63,-4.88 -4.43,-12.06 -4.43,-18.82 0,-3.03 0.32,-5.66 0.82,-7.92 -2.15,1.4 -4.82,2.58 -8.18,3.1 -1.3,0.2 -2.46,0.18 -3.49,-0.01 0.03,1.08 0.03,2.23 -0,3.42 -0.17,5.66 -1.09,12.73 -3.42,21.02 -1.95,6.95 -4.32,11.93 -6.95,14.65 -1.8,1.86 -3.76,2.78 -5.85,2.7 -2.03,-0.08 -4.02,-1.1 -5.91,-3.14 -3.12,-3.35 -6.19,-9.8 -9,-19.66 -1.78,-6.25 -2.83,-11.7 -3.4,-16.34 -1.48,3.24 -3.11,6.63 -4.76,9.91 -5.43,10.82 -11.46,20.52 -14,20.44 -0.16,-0.01 -0.27,-0.02 -0.43,-0.04 -1.82,-0.36 -12.61,-22.22 -24.39,-52.21 -34.08,61.33 -70.48,86.54 -99.56,89.88 -14.89,1.71 -27.9,-2.28 -37.78,-10.09 -9.87,-7.81 -16.57,-19.42 -18.89,-32.96 -4.2,-24.61 6.1,-55.7 38.42,-81.86 51.25,-41.49 84.19,-26.75 84.29,-26.7l-1.77 4.15zm35.93 46.87c16.21,-31.46 24.07,-61.2 26.34,-86.68 3.03,-34.14 -3.95,-60.45 -14.32,-72.75 -3.69,-4.37 -8.09,-6.81 -12.62,-7.35 -4.14,-0.5 -8.42,0.57 -12.4,3.15 -4.12,2.68 -7.92,6.97 -10.92,12.85 -6.29,12.29 -9.04,31.33 -4.08,56.81 4.84,24.87 13.43,53.04 22.37,78.39 1.88,5.34 3.77,10.55 5.63,15.57zm95.88 21.44c-1.34,2.42 -3.05,6.75 -3.05,13.37 0,6.04 1.58,12.4 3.89,16.68 0.89,1.65 1.87,2.95 2.86,3.7 0.67,0.51 1.32,0.74 1.89,0.57 0.5,-0.15 1.05,-0.55 1.63,-1.25l0 -0.01c2.51,-2.97 3.8,-9.86 4.23,-17.04 0.19,-3.22 0.22,-6.45 0.11,-9.38 -3.4,0.91 -6.62,-0.29 -9.67,-3.72 -0.88,-0.99 -1.5,-1.97 -1.89,-2.92zm11.25 1.95c-0.34,-3.39 -0.91,-5.91 -1.62,-6.79 -0.59,-0.73 -1.94,-0.77 -3.2,-0.36 -0.55,0.18 -1.06,0.44 -1.47,0.77 -0.36,0.28 -0.65,0.62 -0.82,1 -0.36,0.79 -0.15,1.92 1.12,3.35 1.95,2.2 3.94,2.84 5.99,2.04zm68.71 99.16c0.21,-0.01 -0.06,-0.4 -0.68,-1.06l0.68 1.06z"/>
 </g>
</svg>
